<?xml version="1.0" encoding="utf-8"?>
<!-- Generator: Adobe Illustrator 28.1.0, SVG Export Plug-In . SVG Version: 6.00 Build 0)  -->
<svg version="1.1" id="Layer_1" xmlns="http://www.w3.org/2000/svg" xmlns:xlink="http://www.w3.org/1999/xlink" x="0px" y="0px"
	 viewBox="0 0 949.8 470" style="enable-background:new 0 0 949.8 470;" xml:space="preserve">
<style type="text/css">
	.st0{fill:#FFFFFF;}
	.st1{fill:#DFDFDF;}
	.st2{fill:#6C63FF;}
	.st3{fill:#2F2E43;}
</style>
<path class="st0" d="M767.5,468H115.1c-8.1,0-14.8-6.6-14.8-14.8V14.8C100.3,6.6,107,0,115.1,0h652.4c8.1,0,14.8,6.6,14.8,14.8
	v438.5C782.3,461.4,775.7,468,767.5,468L767.5,468z"/>
<path class="st1" d="M767.5,468H115.1c-8.1,0-14.8-6.6-14.8-14.8V14.8C100.3,6.6,107,0,115.1,0h652.4c8.1,0,14.8,6.6,14.8,14.8
	v438.5C782.3,461.4,775.7,468,767.5,468L767.5,468z M115.1,6c-4.8,0-8.8,3.9-8.8,8.8v438.5c0,4.8,3.9,8.8,8.8,8.8h652.4
	c4.8,0,8.8-3.9,8.8-8.8V14.8c0-4.8-3.9-8.8-8.8-8.8H115.1z"/>
<path class="st1" d="M779.3,14.8v12.1h-676V14.8c0-6.5,5.3-11.8,11.8-11.8h652.4C774,3,779.3,8.3,779.3,14.8z"/>
<circle class="st0" cx="117.7" cy="14.8" r="3.4"/>
<circle class="st0" cx="129.2" cy="14.8" r="3.4"/>
<circle class="st0" cx="140.8" cy="14.8" r="3.4"/>
<path class="st1" d="M170.4,39.5h534.4c4.9,0,8.9,4,8.9,8.9l0,0c0,4.9-4,8.9-8.9,8.9H170.4c-4.9,0-8.9-4-8.9-8.9l0,0
	C161.5,43.5,165.5,39.5,170.4,39.5z"/>
<path class="st1" d="M339.1,251h-119c-7.2,0-13-5.8-13-13V136.3c0-7.2,5.8-13,13-13h119c7.2,0,13,5.8,13,13V238
	C352.1,245.2,346.3,251,339.1,251z M220.1,127.3c-5,0-9,4-9,9V238c0,5,4.1,9,9,9h119c5,0,9-4.1,9-9V136.3c0-5-4-9-9-9
	C339.1,127.3,220.1,127.3,220.1,127.3z"/>
<path class="st1" d="M500.8,251h-119c-7.2,0-13-5.8-13-13V136.3c0-7.2,5.8-13,13-13h119c7.2,0,13,5.8,13,13V238
	C513.8,245.2,508,251,500.8,251L500.8,251z M381.9,127.3c-5,0-9,4-9,9V238c0,5,4,9,9,9h119c5,0,9-4.1,9-9V136.3c0-5-4-9-9-9
	C500.8,127.3,381.9,127.3,381.9,127.3z"/>
<path class="st1" d="M662.5,251h-119c-7.2,0-13-5.8-13-13V136.3c0-7.2,5.8-13,13-13h119c7.2,0,13,5.8,13,13V238
	C675.6,245.2,669.7,251,662.5,251z M543.6,127.3c-5,0-9,4-9,9V238c0,5,4,9,9,9h119c5,0,9-4.1,9-9V136.3c0-5-4-9-9-9
	C662.5,127.3,543.6,127.3,543.6,127.3z"/>
<path class="st1" d="M339.1,410h-119c-7.2,0-13-5.8-13-13V295.3c0-7.2,5.8-13,13-13h119c7.2,0,13,5.8,13,13V397
	C352.1,404.2,346.3,410,339.1,410z M220.1,286.3c-5,0-9,4-9,9V397c0,5,4.1,9,9,9h119c5,0,9-4,9-9V295.3c0-5-4-9-9-9H220.1z"/>
<path class="st1" d="M500.8,410h-119c-7.2,0-13-5.8-13-13V295.3c0-7.2,5.8-13,13-13h119c7.2,0,13,5.8,13,13V397
	C513.8,404.2,508,410,500.8,410L500.8,410z M381.9,286.3c-5,0-9,4-9,9V397c0,5,4,9,9,9h119c5,0,9-4,9-9V295.3c0-5-4-9-9-9H381.9z"/>
<path class="st2" d="M662.5,410h-119c-7.2,0-13-5.8-13-13V295.3c0-7.2,5.8-13,13-13h119c7.2,0,13,5.8,13,13V397
	C675.6,404.2,669.7,410,662.5,410z"/>
<path class="st3" d="M0,468.3c0,0.9,1.1,1.7,2.4,1.7h945c1.3,0,2.4-0.8,2.4-1.7s-1.1-1.7-2.4-1.7H2.4C1.1,466.6,0,467.4,0,468.3z"/>
</svg>
